<svg width="61" height="61" viewBox="0 0 61 61" fill="none" xmlns="http://www.w3.org/2000/svg">
<path d="M17.7252 0.083313H43.2752C53.0085 0.083313 60.9168 7.99165 60.9168 17.725V43.275C60.9168 47.9538 59.0582 52.4411 55.7497 55.7495C52.4412 59.058 47.954 60.9166 43.2752 60.9166H17.7252C7.99183 60.9166 0.0834961 53.0083 0.0834961 43.275V17.725C0.0834961 13.0461 1.94217 8.55889 5.25062 5.25044C8.55907 1.94198 13.0463 0.083313 17.7252 0.083313ZM17.1168 6.16665C14.2127 6.16665 11.4275 7.3203 9.37401 9.37383C7.32049 11.4274 6.16683 14.2125 6.16683 17.1166V43.8833C6.16683 49.9362 11.0639 54.8333 17.1168 54.8333H43.8835C46.7876 54.8333 49.5728 53.6797 51.6263 51.6261C53.6798 49.5726 54.8335 46.7874 54.8335 43.8833V17.1166C54.8335 11.0637 49.9364 6.16665 43.8835 6.16665H17.1168ZM46.4689 10.7291C47.4773 10.7291 48.4444 11.1297 49.1574 11.8428C49.8704 12.5558 50.271 13.5229 50.271 14.5312C50.271 15.5396 49.8704 16.5067 49.1574 17.2197C48.4444 17.9327 47.4773 18.3333 46.4689 18.3333C45.4605 18.3333 44.4935 17.9327 43.7804 17.2197C43.0674 16.5067 42.6668 15.5396 42.6668 14.5312C42.6668 13.5229 43.0674 12.5558 43.7804 11.8428C44.4935 11.1297 45.4605 10.7291 46.4689 10.7291ZM30.5002 15.2916C34.5337 15.2916 38.402 16.8939 41.2541 19.7461C44.1062 22.5982 45.7085 26.4665 45.7085 30.5C45.7085 34.5335 44.1062 38.4018 41.2541 41.2539C38.402 44.106 34.5337 45.7083 30.5002 45.7083C26.4667 45.7083 22.5984 44.106 19.7462 41.2539C16.8941 38.4018 15.2918 34.5335 15.2918 30.5C15.2918 26.4665 16.8941 22.5982 19.7462 19.7461C22.5984 16.8939 26.4667 15.2916 30.5002 15.2916ZM30.5002 21.375C28.0801 21.375 25.7591 22.3364 24.0478 24.0476C22.3365 25.7589 21.3752 28.0799 21.3752 30.5C21.3752 32.9201 22.3365 35.2411 24.0478 36.9523C25.7591 38.6636 28.0801 39.625 30.5002 39.625C32.9203 39.625 35.2412 38.6636 36.9525 36.9523C38.6638 35.2411 39.6252 32.9201 39.6252 30.5C39.6252 28.0799 38.6638 25.7589 36.9525 24.0476C35.2412 22.3364 32.9203 21.375 30.5002 21.375Z" fill="black"/>
</svg>
