<svg width="56" height="55" viewBox="0 0 56 55" fill="none" xmlns="http://www.w3.org/2000/svg">
<path d="M49.1803 0.125C50.7937 0.125 52.3411 0.765921 53.4819 1.90677C54.6228 3.04761 55.2637 4.59493 55.2637 6.20833V48.7917C55.2637 50.4051 54.6228 51.9524 53.4819 53.0932C52.3411 54.2341 50.7937 54.875 49.1803 54.875H6.59701C4.9836 54.875 3.43629 54.2341 2.29544 53.0932C1.15459 51.9524 0.513672 50.4051 0.513672 48.7917V6.20833C0.513672 4.59493 1.15459 3.04761 2.29544 1.90677C3.43629 0.765921 4.9836 0.125 6.59701 0.125H49.1803ZM47.6595 47.2708V31.15C47.6595 28.5202 46.6148 25.998 44.7552 24.1384C42.8956 22.2789 40.3735 21.2342 37.7437 21.2342C35.1583 21.2342 32.147 22.8158 30.687 25.1883V21.8121H22.2008V47.2708H30.687V32.2754C30.687 29.9333 32.5728 28.0171 34.9149 28.0171C36.0443 28.0171 37.1274 28.4657 37.926 29.2643C38.7246 30.0629 39.1733 31.146 39.1733 32.2754V47.2708H47.6595ZM12.3153 17.0367C13.6706 17.0367 14.9703 16.4983 15.9287 15.54C16.887 14.5817 17.4253 13.2819 17.4253 11.9267C17.4253 9.09792 15.1441 6.78625 12.3153 6.78625C10.952 6.78625 9.64453 7.32783 8.68052 8.29184C7.7165 9.25586 7.17492 10.5633 7.17492 11.9267C7.17492 14.7554 9.48659 17.0367 12.3153 17.0367ZM16.5433 47.2708V21.8121H8.11784V47.2708H16.5433Z" fill="black"/>
</svg>
