<svg width="57" height="57" viewBox="0 0 57 57" fill="none" xmlns="http://www.w3.org/2000/svg">
<path fill-rule="evenodd" clip-rule="evenodd" d="M12.3696 1.37439C22.9425 0.202434 33.6125 0.202434 44.1854 1.37439C49.9615 2.01922 54.6183 6.56651 55.2966 12.3639C56.5504 23.0848 56.5504 33.9152 55.2966 44.636C54.6183 50.4334 49.9615 54.9807 44.1885 55.6286C33.6146 56.8009 22.9435 56.8009 12.3696 55.6286C6.59345 54.9807 1.93666 50.4334 1.25837 44.6391C0.00437251 33.9172 0.00437251 23.0858 1.25837 12.3639C1.93666 6.56651 6.59345 2.01922 12.3696 1.37439ZM41.6912 19.3141L44.2462 16.8717V16.3333H35.4193L29.1261 32.0283L21.9721 16.3333H12.7133V16.8717L15.6941 20.4608C15.8389 20.5906 15.951 20.7527 16.0213 20.934C16.0916 21.1153 16.1181 21.3107 16.0987 21.5041V35.6205C16.1412 35.8713 16.1243 36.1285 16.0493 36.3715C15.9743 36.6146 15.8433 36.8366 15.6667 37.0197L12.3087 41.0955V41.6278H21.82V41.0925L18.4651 37.0227C18.2869 36.8399 18.1526 36.6189 18.0725 36.3765C17.9924 36.134 17.9686 35.8766 18.0027 35.6236V23.4143L26.3521 41.6308H27.3255L34.4947 23.4143V37.9322C34.4947 38.3185 34.4947 38.3915 34.2392 38.647L31.6598 41.1503V41.6856H44.1824V41.1503L41.6943 38.7048C41.5861 38.6229 41.5023 38.5131 41.4519 38.3871C41.4015 38.2612 41.3864 38.1239 41.4084 37.99V20.0289C41.3864 19.895 41.4015 19.7577 41.4519 19.6318C41.5023 19.5058 41.583 19.396 41.6912 19.3141Z" fill="black"/>
</svg>
